<svg width="25" height="25" viewBox="0 0 25 25" fill="none" xmlns="http://www.w3.org/2000/svg">
<path d="M12.02 2.93897C6.51996 2.93897 2.01996 7.42897 2.01996 12.959C2.01996 17.959 5.67996 22.109 10.46 22.859V15.859H7.91996V12.959H10.46V10.749C10.46 8.23897 11.95 6.85897 14.24 6.85897C15.33 6.85897 16.47 7.04897 16.47 7.04897V9.51897H15.21C13.97 9.51897 13.58 10.289 13.58 11.079V12.959H16.36L15.91 15.859H13.58V22.859C15.9364 22.4868 18.0822 21.2845 19.6299 19.469C21.1776 17.6536 22.0253 15.3446 22.02 12.959C22.02 7.42897 17.52 2.93897 12.02 2.93897Z" fill="black"/>
</svg>
