<svg width="25" height="25" viewBox="0 0 25 25" fill="none" xmlns="http://www.w3.org/2000/svg">
<path d="M8.41969 2.89897H16.8197C20.0197 2.89897 22.6197 5.49897 22.6197 8.69897V17.099C22.6197 18.6372 22.0086 20.1125 20.9209 21.2002C19.8332 22.2879 18.3579 22.899 16.8197 22.899H8.41969C5.21969 22.899 2.61969 20.299 2.61969 17.099V8.69897C2.61969 7.16072 3.23076 5.68546 4.31847 4.59775C5.40618 3.51004 6.88143 2.89897 8.41969 2.89897ZM8.21969 4.89897C7.26491 4.89897 6.34924 5.27826 5.67411 5.95339C4.99897 6.62852 4.61969 7.54419 4.61969 8.49897V17.299C4.61969 19.289 6.22969 20.899 8.21969 20.899H17.0197C17.9745 20.899 18.8901 20.5197 19.5653 19.8446C20.2404 19.1694 20.6197 18.2538 20.6197 17.299V8.49897C20.6197 6.50897 19.0097 4.89897 17.0197 4.89897H8.21969ZM17.8697 6.39897C18.2012 6.39897 18.5192 6.53067 18.7536 6.76509C18.988 6.99951 19.1197 7.31745 19.1197 7.64897C19.1197 7.98049 18.988 8.29843 18.7536 8.53286C18.5192 8.76728 18.2012 8.89897 17.8697 8.89897C17.5382 8.89897 17.2202 8.76728 16.9858 8.53286C16.7514 8.29843 16.6197 7.98049 16.6197 7.64897C16.6197 7.31745 16.7514 6.99951 16.9858 6.76509C17.2202 6.53067 17.5382 6.39897 17.8697 6.39897ZM12.6197 7.89897C13.9458 7.89897 15.2175 8.42576 16.1552 9.36344C17.0929 10.3011 17.6197 11.5729 17.6197 12.899C17.6197 14.2251 17.0929 15.4968 16.1552 16.4345C15.2175 17.3722 13.9458 17.899 12.6197 17.899C11.2936 17.899 10.0218 17.3722 9.08416 16.4345C8.14647 15.4968 7.61969 14.2251 7.61969 12.899C7.61969 11.5729 8.14647 10.3011 9.08416 9.36344C10.0218 8.42576 11.2936 7.89897 12.6197 7.89897ZM12.6197 9.89897C11.824 9.89897 11.061 10.215 10.4984 10.7777C9.93576 11.3403 9.61969 12.1033 9.61969 12.899C9.61969 13.6946 9.93576 14.4577 10.4984 15.0203C11.061 15.5829 11.824 15.899 12.6197 15.899C13.4153 15.899 14.1784 15.5829 14.741 15.0203C15.3036 14.4577 15.6197 13.6946 15.6197 12.899C15.6197 12.1033 15.3036 11.3403 14.741 10.7777C14.1784 10.215 13.4153 9.89897 12.6197 9.89897Z" fill="black"/>
</svg>
