<svg width="61" height="61" viewBox="0 0 61 61" fill="none" xmlns="http://www.w3.org/2000/svg">
<path d="M30.4749 5.89302C27.1919 5.89302 23.941 6.53966 20.9078 7.79603C17.8747 9.0524 15.1187 10.8939 12.7972 13.2154C8.10884 17.9038 5.47491 24.2626 5.47491 30.893C5.47491 37.5234 8.10884 43.8823 12.7972 48.5707C15.1187 50.8922 17.8747 52.7336 20.9078 53.99C23.941 55.2464 27.1919 55.893 30.4749 55.893C37.1053 55.893 43.4642 53.2591 48.1526 48.5707C52.841 43.8823 55.4749 37.5234 55.4749 30.893C55.4749 27.61 54.8283 24.3591 53.5719 21.3259C52.3155 18.2928 50.474 15.5368 48.1526 13.2154C45.8311 10.8939 43.0751 9.0524 40.042 7.79603C37.0089 6.53966 33.758 5.89302 30.4749 5.89302ZM18.1499 46.593C19.2249 44.343 25.7749 42.143 30.4749 42.143C35.1749 42.143 41.7249 44.343 42.7999 46.593C39.3999 49.293 35.1249 50.893 30.4749 50.893C25.8249 50.893 21.5499 49.293 18.1499 46.593ZM46.3749 42.968C42.7999 38.618 34.1249 37.143 30.4749 37.143C26.8249 37.143 18.1499 38.618 14.5749 42.968C12.0249 39.643 10.4749 35.443 10.4749 30.893C10.4749 19.868 19.4499 10.893 30.4749 10.893C41.4999 10.893 50.4749 19.868 50.4749 30.893C50.4749 35.443 48.9249 39.643 46.3749 42.968ZM30.4749 15.893C25.6249 15.893 21.7249 19.793 21.7249 24.643C21.7249 29.493 25.6249 33.393 30.4749 33.393C35.3249 33.393 39.2249 29.493 39.2249 24.643C39.2249 19.793 35.3249 15.893 30.4749 15.893ZM30.4749 28.393C29.4804 28.393 28.5265 27.9979 27.8233 27.2947C27.12 26.5914 26.7249 25.6376 26.7249 24.643C26.7249 23.6485 27.12 22.6946 27.8233 21.9914C28.5265 21.2881 29.4804 20.893 30.4749 20.893C31.4695 20.893 32.4233 21.2881 33.1266 21.9914C33.8298 22.6946 34.2249 23.6485 34.2249 24.643C34.2249 25.6376 33.8298 26.5914 33.1266 27.2947C32.4233 27.9979 31.4695 28.393 30.4749 28.393Z" fill="black"/>
</svg>
